# xmcd
# 
# Track frame offsets:
#     150
#     23477
#     46414
#     65301
#     87918
#     108657
#     127527
#     148081
#     169934
#     189221
#     206740
# 
# Disc length: 3053
# 
# Revision: 15
# Processed by: cddbd v1.5.2PL0 Copyright (c) Steve Scherf et al.
# Submitted via: fre:ac v1.0.17
# 
DISCID=8e0beb0b
DTITLE=TM NETWORK - humansystem
DYEAR=1987
DGENRE=J-POP
TTITLE0=CHILDREN OF THE NEW CENTURY
TTITLE1=KISS YOU (MORE ROCK)
TTITLE2=BE TOGETHER
TTITLE3=HUMAN SYSTEM
TTITLE4=TELEPHONE LINE
TTITLE5=LEPRECHAUN CHRISTMAS
TTITLE6=FALLIN' ANGEL
TTITLE7=RESISTANCE
TTITLE8=COME BACK TO ASIA
TTITLE9=DAWN VALLEY (Instrumental)
TTITLE10=THIS NIGHT
EXTD=YEAR: 1987
EXTT0=
EXTT1=
EXTT2=
EXTT3=
EXTT4=
EXTT5=
EXTT6=
EXTT7=
EXTT8=
EXTT9=
EXTT10=
PLAYORDER=
